<?xml version="1.0"?>
<svg width="640" height="480" xmlns="http://www.w3.org/2000/svg" xmlns:svg="http://www.w3.org/2000/svg" xmlns:xlink="http://www.w3.org/1999/xlink">
 <!-- Created with SVG-edit - https://github.com/SVG-Edit/svgedit-->
 <defs>
  <symbol id="svg_2" viewBox="0 0 30 30" x="0px" xmlns="http://www.w3.org/2000/svg" xmlns:xlink="http://www.w3.org/1999/xlink" y="0px">
   <path d="m7.96,24.51l0.39,0l6.88,-10.18c0.09,-0.18 0.04,-0.27 -0.15,-0.27l-2.84,0l2.99,-5.45c0.09,-0.18 0.02,-0.27 -0.2,-0.27l-3.81,0c-0.11,0 -0.2,0.06 -0.29,0.18l-2.78,7.4c-0.02,0.18 0.04,0.27 0.19,0.27l2.75,0l-3.13,8.32zm8.5,-6.33l0.27,0l5.22,-7.67c0.05,-0.08 0.06,-0.15 0.04,-0.2s-0.08,-0.07 -0.17,-0.07l-2.1,0l2.18,-4.03c0.12,-0.2 0.06,-0.3 -0.18,-0.3l-2.74,0c-0.13,0 -0.23,0.06 -0.3,0.19l-2.08,5.48c-0.03,0.09 -0.03,0.16 0.01,0.21c0.04,0.05 0.1,0.07 0.19,0.07l2.04,0l-2.38,6.32z"/>
  </symbol>
 </defs>
 <g class="layer">
  <title>Layer 1</title>
  <g id="svg_4"/>
  <use fill="#ffffff" id="svg_5" stroke="#000000" stroke-linejoin="round" stroke-width="0.4" transform="matrix(0.956086 0 0 0.940763 28.8813 379.629)" x="-8.968576" xlink:href="#svg_2" y="-397.180517"/>
  <g id="svg_6"/>
  <polygon cx="58.5" cy="81.5" edge="0" fill="#FF0000" id="svg_8" orient="x" shape="regularPoly" sides="5" strokeWidth="5" strokecolor="#000000"/>
  <polygon cx="58.5" cy="81.5" edge="0" fill="#FF0000" id="svg_9" orient="x" shape="regularPoly" sides="5" strokeWidth="5" strokecolor="none"/>
 </g>
</svg>